[img]http://img710.imageshack.us/img710/4018/spyzj.jpg[/img]
[code]
Spy Kids 4 2011 TS READNFO XViD - CHOiCE                                     

IMDB: http://www.imdb.com/title/tt1517489/           RELEASE DATE: 19/8/11                 

        
SIZE:    1.36 gb                                     LENGTH: 1H 21MN

SOURCE: V: RELiZLAB Thanks A: OWN                    HEIGHT: 384

SUBTITLES: NONE                                      WIDTH: 720

INFO:

Video
ID                               : 0
Format                           : MPEG-4 Visual
Format profile                   : Advanced Simple@L5
Format settings, BVOP            : 2
Format settings, QPel            : No
Format settings, GMC             : No warppoints
Format settings, Matrix          : Default (MPEG)
Muxing mode                      : Packed bitstream
Codec ID                         : XVID
Codec ID/Hint                    : XviD
Duration                         : 1h 21mn
Bit rate                         : 2 273 Kbps
Width                            : 720 pixels
Height                           : 384 pixels
Display aspect ratio             : 1.875
Frame rate                       : 25.000 fps
Color space                      : YUV
Chroma subsampling               : 4:2:0
Bit depth                        : 8 bits
Scan type                        : Progressive
Compression mode                 : Lossy
Bits/(Pixel*Frame)               : 0.329
Stream size                      : 1.30 GiB (94%)
Writing library                  : XviD 64


Audio
ID                               : 1
Format                           : MPEG Audio
Format version                   : Version 1
Format profile                   : Layer 3
Mode                             : Joint stereo
Mode extension                   : MS Stereo
Codec ID                         : 55
Codec ID/Hint                    : MP3
Duration                         : 1h 21mn
Bit rate mode                    : Constant
Bit rate                         : 128 Kbps
Channel(s)                       : 2 channels
Sampling rate                    : 44.1 KHz
Compression mode                 : Lossy
Stream size                      : 74.9 MiB (5%)
Alignment                        : Split accross interleaves
Interleave, duration             : 40 ms (1.00 video frame)

NOTES:

Video is decent, but is in 3d so has the double effect from time to time.
Audio is LiNE but has static also from timeto time but we filtered it as best we could but 

occasionally there will be some hissing.
There is 2 seconds missing at 27:15 and again at 57:15 then the last 2 minutes are also 

missing, nothing important just the wrap up. 
[/code]
Screens:
[img]http://img84.imageshack.us/img84/768/34238680.png[/img]
[img]http://img571.imageshack.us/img571/1305/18180031.png[/img]
[img]http://img97.imageshack.us/img97/4923/32617328.png[/img]
[img]http://img811.imageshack.us/img811/8349/80643495.png[/img]